<svg width="41" height="41" viewBox="0 0 41 41" fill="none" xmlns="http://www.w3.org/2000/svg">
<path d="M32.377 8.42285L12.377 8.42285C10.7201 8.42285 9.37695 9.766 9.37695 11.4229L9.37695 25.4229C9.37695 27.0797 10.7201 28.4229 12.377 28.4229L32.377 28.4229C34.0338 28.4229 35.377 27.0797 35.377 25.4229V11.4229C35.377 9.766 34.0338 8.42285 32.377 8.42285Z" stroke="#F3C63F" stroke-width="2.4" stroke-miterlimit="10"/>
<path d="M5.37695 12.4229L5.37695 29.4229C5.37695 30.2185 5.69302 30.9816 6.25563 31.5442C6.81824 32.1068 7.5813 32.4229 8.37695 32.4229L31.377 32.4229" stroke="#F3C63F" stroke-width="2.4" stroke-miterlimit="10" stroke-linecap="square"/>
<path d="M19.377 14.4229L26.377 18.4229L19.377 22.4229L19.377 14.4229Z" stroke="#F3C63F" stroke-width="2.4" stroke-miterlimit="10"/>
</svg>
