<svg width="41" height="41" viewBox="0 0 41 41" fill="none" xmlns="http://www.w3.org/2000/svg">
<path d="M27.377 25.4229H29.701C30.524 25.4228 31.3343 25.626 32.06 26.0143C32.7857 26.4026 33.4043 26.9641 33.861 27.6489L34.377 28.4229L19.209 34.3229C18.3305 34.6649 17.3838 34.7952 16.4456 34.7031C15.5074 34.6111 14.6041 34.2992 13.809 33.7929L5.37695 28.4229L5.37695 19.4229H7.37695C10.008 19.4229 13.015 20.3899 14.377 22.4229H19.377C20.703 22.4229 21.9748 22.9496 22.9125 23.8873C23.8502 24.825 24.377 26.0968 24.377 27.4229L13.377 27.4229" stroke="#F3C63F" stroke-width="2.4" stroke-miterlimit="10" stroke-linecap="square"/>
<path d="M23.3836 17.4089C26.6935 17.4089 29.3766 14.7257 29.3766 11.4159C29.3766 8.10601 26.6935 5.42285 23.3836 5.42285C20.0738 5.42285 17.3906 8.10601 17.3906 11.4159C17.3906 14.7257 20.0738 17.4089 23.3836 17.4089Z" stroke="#F3C63F" stroke-width="2.4" stroke-miterlimit="10" stroke-linecap="square"/>
<path d="M23.377 9.42285V13.4229" stroke="#F3C63F" stroke-width="2.4" stroke-miterlimit="10" stroke-linecap="square"/>
</svg>
